<svg xmlns="http://www.w3.org/2000/svg" xmlns:xlink="http://www.w3.org/1999/xlink" viewBox="0 0 32 32" fill="#FFFFFF">
  <path d="M16.808594 3C14.165096 3 12 5.165096 12 7.8085938L12 7.9453125C9.7361726 7.7032495 7.8225189 6.7099596 6.3378906 6.1777344L6.3359375 6.1777344C5.9161848 6.0277182 5.4850405 5.9793384 5.0683594 6.0175781C3.818316 6.1322973 2.6980085 7.0300378 2.390625 8.328125C0.98180308 14.283834 1 22 1 22L1 22.414062L1.2929688 22.707031C2.0781999 23.492262 3.3393474 24.247276 4.8808594 24.882812C6.4223713 25.518351 8.2207686 26 10 26C14.648148 26 17.81963 24.948268 20.703125 23.945312C23.58662 22.942358 26.166667 22 30 22L31 22L31 21C31 17.420685 30.293483 12.110751 29.257812 8.2421875L29.257812 8.2402344C28.856617 6.7435214 27.360114 5.7696265 25.822266 6.0488281C22.844855 6.5885371 18.056742 7.781637 14 7.9628906L14 7.8085938C14 6.2460915 15.246091 5 16.808594 5L20 5L20 3L16.808594 3 z M 5.2246094 7.9980469C5.3652969 7.9877766 5.5140352 8.0079369 5.6621094 8.0605469C7.0373693 8.5535646 9.7044444 10 13 10C17.659588 10 23.12334 8.5692888 26.177734 8.015625C26.699886 7.920827 27.183414 8.2344755 27.324219 8.7597656C28.227553 12.13476 28.839352 16.812874 28.931641 20.128906C25.381878 20.305967 22.633153 21.155111 20.046875 22.054688C17.18037 23.051732 14.351852 24 10 24C8.5932314 24 7.0015193 23.592665 5.6445312 23.033203C4.4319878 22.533293 3.538091 21.921148 3.0195312 21.478516C3.0256095 20.677652 3.0947803 14.035979 4.3359375 8.7890625C4.4454259 8.3266908 4.8025469 8.0288576 5.2246094 7.9980469 z M 5 12L5 14L7 14L7 12L5 12 z M 9 12L9 14L11 14L11 12L9 12 z M 13 12L13 14L15 14L15 12L13 12 z M 17 12L17 14L19 14L19 12L17 12 z M 21 12L21 14L23 14L23 12L21 12 z M 25 12L25 14L27 14L27 12L25 12 z M 5 16L5 18L9 18L9 16L5 16 z M 11 16L11 18L13 18L13 16L11 16 z M 15 16L15 18L17 18L17 16L15 16 z M 19 16L19 18L21 18L21 16L19 16 z M 23 16L23 18L27 18L27 16L23 16 z M 7 20L7 22L16 22L16 20L7 20 z" fill="#FFFFFF" />
</svg>