<svg xmlns="http://www.w3.org/2000/svg" xmlns:xlink="http://www.w3.org/1999/xlink" viewBox="0 0 48 48"><path fill="#3f51b5" d="M26.4 24.898L27.309 19H30l-2.123 10H25.5l-1.495-5.938L22.505 29h-2.377L18 19h2.695l.891 6.035L23.02 19h1.959L26.4 24.898zM12.4 24.898L13.309 19H16l-2.123 10H11.5l-1.495-5.938L8.505 29H6.128L4 19h2.695l.891 6.035L9.02 19h1.959L12.4 24.898zM40.4 24.898L41.309 19H44l-2.123 10H39.5l-1.495-5.938L36.505 29h-2.377L32 19h2.695l.891 6.035L37.02 19h1.959L40.4 24.898z"/><path fill="#2196f3" d="M8.5 12H39.5V14H8.5z"/><path fill="#2196f3" d="M8.5 12H39.5V14H8.5zM8.5 34H39.5V36H8.5z"/><path fill="#2196f3" d="M7.426 17c2.085-4.911 6.289-8.714 11.462-10.25-1.965 2.298-3.48 5.898-4.273 10.25h2.048C17.776 11.281 20.182 6.998 23 6.164V17h2V6.164c2.818.833 5.224 5.117 6.337 10.836h2.048c-.793-4.352-2.308-7.952-4.273-10.25 5.173 1.536 9.377 5.339 11.462 10.25h2.137C39.865 9.419 32.563 4 24 4S8.135 9.419 5.289 17H7.426zM40.574 31c-2.085 4.911-6.289 8.714-11.462 10.25 1.965-2.298 3.48-5.898 4.273-10.25h-2.048C30.224 36.719 27.818 41.002 25 41.836V31h-2v10.836c-2.818-.833-5.224-5.117-6.337-10.836h-2.048c.793 4.352 2.308 7.952 4.273 10.25C13.715 39.714 9.511 35.911 7.426 31H5.289C8.135 38.581 15.437 44 24 44s15.865-5.419 18.711-13H40.574z"/></svg>